<mxfile host="www.draw.io" modified="2020-03-07T07:28:12.391Z" agent="Mozilla/5.0 (Windows NT 10.0; WOW64) AppleWebKit/537.36 (KHTML, like Gecko) Chrome/74.0.3729.131 Safari/537.36" etag="ghlj42Q6-EDIs9kxWi1g" version="12.8.1" type="github">
  <diagram id="TZZNn2LzloCsjPWsIjHj" name="Page-1">
    <mxGraphModel dx="1360" dy="802" grid="1" gridSize="10" guides="1" tooltips="1" connect="1" arrows="1" fold="1" page="1" pageScale="1" pageWidth="827" pageHeight="1169" math="0" shadow="0">
      <root>
        <mxCell id="0" />
        <mxCell id="1" parent="0" />
        <mxCell id="rFcel849J3XV2kOf4Nsj-1" value="" style="rounded=1;whiteSpace=wrap;html=1;horizontal=1;" parent="1" vertex="1">
          <mxGeometry x="70" y="90" width="200" height="110" as="geometry" />
        </mxCell>
        <mxCell id="rFcel849J3XV2kOf4Nsj-2" value="featureacquisition" style="text;html=1;strokeColor=none;fillColor=none;align=center;verticalAlign=middle;whiteSpace=wrap;rounded=0;" parent="1" vertex="1">
          <mxGeometry x="80" y="50" width="180" height="20" as="geometry" />
        </mxCell>
        <mxCell id="rFcel849J3XV2kOf4Nsj-3" value="enb_deamon" style="rounded=1;whiteSpace=wrap;html=1;" parent="1" vertex="1">
          <mxGeometry x="80" y="115" width="90" height="25" as="geometry" />
        </mxCell>
        <mxCell id="rFcel849J3XV2kOf4Nsj-4" value="srv" style="rounded=1;whiteSpace=wrap;html=1;" parent="1" vertex="1">
          <mxGeometry x="190" y="115" width="60" height="25" as="geometry" />
        </mxCell>
        <mxCell id="rFcel849J3XV2kOf4Nsj-5" value="V2.0" style="rounded=1;whiteSpace=wrap;html=1;" parent="1" vertex="1">
          <mxGeometry x="80" y="160" width="90" height="25" as="geometry" />
        </mxCell>
        <mxCell id="rFcel849J3XV2kOf4Nsj-6" value="config" style="rounded=1;whiteSpace=wrap;html=1;" parent="1" vertex="1">
          <mxGeometry x="190" y="160" width="60" height="25" as="geometry" />
        </mxCell>
        <mxCell id="rFcel849J3XV2kOf4Nsj-7" value="version&lt;br&gt;*******" style="rounded=1;whiteSpace=wrap;html=1;" parent="1" vertex="1">
          <mxGeometry x="320" y="100" width="70" height="40" as="geometry" />
        </mxCell>
        <mxCell id="rFcel849J3XV2kOf4Nsj-8" value="" style="endArrow=classic;html=1;exitX=1;exitY=0.5;exitDx=0;exitDy=0;entryX=0;entryY=0.5;entryDx=0;entryDy=0;" parent="1" source="rFcel849J3XV2kOf4Nsj-6" target="rFcel849J3XV2kOf4Nsj-7" edge="1">
          <mxGeometry width="50" height="50" relative="1" as="geometry">
            <mxPoint x="280" y="230" as="sourcePoint" />
            <mxPoint x="330" y="180" as="targetPoint" />
          </mxGeometry>
        </mxCell>
        <mxCell id="rFcel849J3XV2kOf4Nsj-9" value="Gerrit" style="rounded=1;whiteSpace=wrap;html=1;" parent="1" vertex="1">
          <mxGeometry x="120" y="250" width="100" height="40" as="geometry" />
        </mxCell>
        <mxCell id="rFcel849J3XV2kOf4Nsj-10" value="" style="endArrow=classic;html=1;entryX=0.5;entryY=0;entryDx=0;entryDy=0;exitX=0.5;exitY=1;exitDx=0;exitDy=0;" parent="1" source="rFcel849J3XV2kOf4Nsj-1" target="rFcel849J3XV2kOf4Nsj-9" edge="1">
          <mxGeometry width="50" height="50" relative="1" as="geometry">
            <mxPoint x="20" y="260" as="sourcePoint" />
            <mxPoint x="70" y="210" as="targetPoint" />
          </mxGeometry>
        </mxCell>
        <mxCell id="rFcel849J3XV2kOf4Nsj-11" value="Gitlab&amp;nbsp;编译" style="rounded=1;whiteSpace=wrap;html=1;" parent="1" vertex="1">
          <mxGeometry x="280" y="250" width="100" height="40" as="geometry" />
        </mxCell>
        <mxCell id="rFcel849J3XV2kOf4Nsj-12" value="" style="endArrow=classic;html=1;entryX=0;entryY=0.5;entryDx=0;entryDy=0;exitX=1;exitY=0.5;exitDx=0;exitDy=0;" parent="1" source="rFcel849J3XV2kOf4Nsj-9" target="rFcel849J3XV2kOf4Nsj-11" edge="1">
          <mxGeometry width="50" height="50" relative="1" as="geometry">
            <mxPoint x="200" y="380" as="sourcePoint" />
            <mxPoint x="250" y="330" as="targetPoint" />
          </mxGeometry>
        </mxCell>
        <mxCell id="rFcel849J3XV2kOf4Nsj-16" style="edgeStyle=orthogonalEdgeStyle;rounded=0;orthogonalLoop=1;jettySize=auto;html=1;exitX=1;exitY=0.5;exitDx=0;exitDy=0;entryX=0;entryY=0.5;entryDx=0;entryDy=0;" parent="1" source="rFcel849J3XV2kOf4Nsj-13" target="rFcel849J3XV2kOf4Nsj-15" edge="1">
          <mxGeometry relative="1" as="geometry" />
        </mxCell>
        <mxCell id="rFcel849J3XV2kOf4Nsj-13" value="打包&amp;nbsp; 解析 config&lt;br&gt;版本号+时间戳" style="rounded=1;whiteSpace=wrap;html=1;" parent="1" vertex="1">
          <mxGeometry x="270" y="320" width="120" height="60" as="geometry" />
        </mxCell>
        <mxCell id="rFcel849J3XV2kOf4Nsj-14" value="" style="endArrow=classic;html=1;entryX=0.5;entryY=0;entryDx=0;entryDy=0;exitX=0.5;exitY=1;exitDx=0;exitDy=0;" parent="1" source="rFcel849J3XV2kOf4Nsj-11" target="rFcel849J3XV2kOf4Nsj-13" edge="1">
          <mxGeometry width="50" height="50" relative="1" as="geometry">
            <mxPoint x="160" y="380" as="sourcePoint" />
            <mxPoint x="210" y="330" as="targetPoint" />
          </mxGeometry>
        </mxCell>
        <mxCell id="rFcel849J3XV2kOf4Nsj-15" value="拷贝部署包到/mnt/code" style="rounded=1;whiteSpace=wrap;html=1;" parent="1" vertex="1">
          <mxGeometry x="450" y="325" width="120" height="50" as="geometry" />
        </mxCell>
        <mxCell id="rFcel849J3XV2kOf4Nsj-17" value="冒烟测试" style="rounded=1;whiteSpace=wrap;html=1;" parent="1" vertex="1">
          <mxGeometry x="620" y="327.5" width="70" height="45" as="geometry" />
        </mxCell>
        <mxCell id="rFcel849J3XV2kOf4Nsj-18" value="" style="endArrow=classic;html=1;entryX=0;entryY=0.5;entryDx=0;entryDy=0;exitX=1;exitY=0.5;exitDx=0;exitDy=0;" parent="1" source="rFcel849J3XV2kOf4Nsj-15" target="rFcel849J3XV2kOf4Nsj-17" edge="1">
          <mxGeometry width="50" height="50" relative="1" as="geometry">
            <mxPoint x="570" y="440" as="sourcePoint" />
            <mxPoint x="620" y="390" as="targetPoint" />
          </mxGeometry>
        </mxCell>
        <mxCell id="rFcel849J3XV2kOf4Nsj-19" value="&lt;font style=&quot;font-size: 24px&quot;&gt;&lt;b&gt;Dev Branch&lt;/b&gt;&lt;/font&gt;" style="text;html=1;strokeColor=none;fillColor=none;align=center;verticalAlign=middle;whiteSpace=wrap;rounded=0;" parent="1" vertex="1">
          <mxGeometry x="20" y="330" width="150" height="50" as="geometry" />
        </mxCell>
        <mxCell id="rFcel849J3XV2kOf4Nsj-20" value="&lt;span style=&quot;font-size: 24px&quot;&gt;&lt;b&gt;Master&lt;/b&gt;&lt;/span&gt;" style="text;html=1;strokeColor=none;fillColor=none;align=center;verticalAlign=middle;whiteSpace=wrap;rounded=0;" parent="1" vertex="1">
          <mxGeometry x="10" y="480" width="120" height="40" as="geometry" />
        </mxCell>
        <mxCell id="rFcel849J3XV2kOf4Nsj-27" style="edgeStyle=orthogonalEdgeStyle;rounded=0;orthogonalLoop=1;jettySize=auto;html=1;exitX=1;exitY=0.5;exitDx=0;exitDy=0;entryX=0;entryY=0.5;entryDx=0;entryDy=0;" parent="1" source="rFcel849J3XV2kOf4Nsj-21" target="rFcel849J3XV2kOf4Nsj-26" edge="1">
          <mxGeometry relative="1" as="geometry" />
        </mxCell>
        <mxCell id="rFcel849J3XV2kOf4Nsj-21" value="打包&amp;nbsp; 解析 config&lt;br&gt;版本号" style="rounded=1;whiteSpace=wrap;html=1;" parent="1" vertex="1">
          <mxGeometry x="270" y="470" width="120" height="60" as="geometry" />
        </mxCell>
        <mxCell id="rFcel849J3XV2kOf4Nsj-22" value="" style="endArrow=classic;html=1;entryX=0.5;entryY=0;entryDx=0;entryDy=0;" parent="1" target="rFcel849J3XV2kOf4Nsj-20" edge="1">
          <mxGeometry width="50" height="50" relative="1" as="geometry">
            <mxPoint x="70" y="385" as="sourcePoint" />
            <mxPoint x="90" y="390" as="targetPoint" />
          </mxGeometry>
        </mxCell>
        <mxCell id="rFcel849J3XV2kOf4Nsj-23" value="Merge" style="text;html=1;strokeColor=none;fillColor=none;align=center;verticalAlign=middle;whiteSpace=wrap;rounded=0;" parent="1" vertex="1">
          <mxGeometry x="105" y="410" width="40" height="20" as="geometry" />
        </mxCell>
        <mxCell id="rFcel849J3XV2kOf4Nsj-24" value="" style="endArrow=classic;html=1;entryX=0;entryY=0.5;entryDx=0;entryDy=0;exitX=1;exitY=0.5;exitDx=0;exitDy=0;" parent="1" source="rFcel849J3XV2kOf4Nsj-20" target="rFcel849J3XV2kOf4Nsj-21" edge="1">
          <mxGeometry width="50" height="50" relative="1" as="geometry">
            <mxPoint x="180" y="600" as="sourcePoint" />
            <mxPoint x="230" y="550" as="targetPoint" />
          </mxGeometry>
        </mxCell>
        <mxCell id="rFcel849J3XV2kOf4Nsj-25" value="触发构建新流水线" style="text;html=1;strokeColor=none;fillColor=none;align=center;verticalAlign=middle;whiteSpace=wrap;rounded=0;" parent="1" vertex="1">
          <mxGeometry x="135" y="460" width="115" height="30" as="geometry" />
        </mxCell>
        <mxCell id="rFcel849J3XV2kOf4Nsj-29" style="edgeStyle=orthogonalEdgeStyle;rounded=0;orthogonalLoop=1;jettySize=auto;html=1;exitX=1;exitY=0.5;exitDx=0;exitDy=0;entryX=0;entryY=0.5;entryDx=0;entryDy=0;" parent="1" source="rFcel849J3XV2kOf4Nsj-26" target="rFcel849J3XV2kOf4Nsj-28" edge="1">
          <mxGeometry relative="1" as="geometry" />
        </mxCell>
        <mxCell id="rFcel849J3XV2kOf4Nsj-26" value="FTP release目录" style="rounded=1;whiteSpace=wrap;html=1;" parent="1" vertex="1">
          <mxGeometry x="450" y="470" width="120" height="60" as="geometry" />
        </mxCell>
        <mxCell id="rFcel849J3XV2kOf4Nsj-28" value="&amp;nbsp; 测试执行" style="rounded=1;whiteSpace=wrap;html=1;" parent="1" vertex="1">
          <mxGeometry x="650" y="470" width="120" height="60" as="geometry" />
        </mxCell>
      </root>
    </mxGraphModel>
  </diagram>
</mxfile>
